<?xml version="1.0" standalone="no"?>
<!DOCTYPE svg PUBLIC "-//W3C//DTD SVG 1.1//EN" "http://www.w3.org/Graphics/SVG/1.1/DTD/svg11.dtd" >
<!--
2013-9-30: Created.
-->
<svg>
<metadata>
Created by iconfont
</metadata>
<defs>

<font id="iconfont" horiz-adv-x="1024" >
  <font-face
    font-family="iconfont"
    font-weight="500"
    font-stretch="normal"
    units-per-em="1024"
    ascent="896"
    descent="-128"
  />
    <missing-glyph />
    
    <glyph glyph-name="iconfontcheck" unicode="&#58908;" d="M887.904 597.792c-12.864 12.064-33.152 11.488-45.216-1.408L415.936 142.016l-233.12 229.696C170.208 384.128 149.952 384 137.536 371.392c-12.416-12.576-12.256-32.864 0.352-45.248l256.48-252.672c0.096-0.096 0.224-0.128 0.32-0.224 0.096-0.096 0.128-0.224 0.224-0.32 2.016-1.92 4.448-3.008 6.784-4.288 1.152-0.672 2.144-1.664 3.36-2.144 3.776-1.472 7.776-2.24 11.744-2.24 4.192 0 8.384 0.832 12.288 2.496 1.312 0.544 2.336 1.664 3.552 2.368 2.4 1.408 4.896 2.592 6.944 4.672 0.096 0.096 0.128 0.256 0.224 0.352 0.064 0.096 0.192 0.128 0.288 0.224l449.184 478.208C901.44 565.408 900.768 585.664 887.904 597.792z"  horiz-adv-x="1024" />

    
    <glyph glyph-name="top" unicode="&#59117;" d="M903.840034 478.834772C887.782783 462.561987 861.730162 462.561987 845.699853 478.861713L549.448958 779.638813 549.448958 176.495054C549.448958 153.486845 531.020838 134.816249 508.335929 134.816249 485.624079 134.816249 467.2229 153.486845 467.2229 176.495054L467.2229 768.781309 177.70743 483.41486C161.434645 467.357609 135.382025 467.734793 119.567249 484.223111 103.725531 500.765313 104.102715 527.141233 120.3755 543.198485L455.530204 873.584509C458.412966 876.413387 469.43212 883.93012 474.03915 886.247106 487.402231 893.036413 494.38013 896 514.343928 896 534.307725 896 550.984635 889.695643 563.431699 881.316775 566.772469 879.080615 570.59819 876.14397 573.561776 873.153441L903.866975 537.810145C919.897285 521.510419 919.897285 495.107556 903.840034 478.834772ZM506.988844 106.069459C530.293412 106.069459 549.206483 86.913913 549.206483 63.286045 549.206483 39.631236 530.293412 20.502631 506.988844 20.502631 483.711219 20.502631 464.798148 39.631236 464.798148 63.286045 464.798148 86.913913 483.711219 106.069459 506.988844 106.069459ZM506.988844-42.433172C530.293412-42.433172 549.206483-61.588718 549.206483-85.216586 549.206483-108.844454 530.293412-128 506.988844-128 483.711219-128 464.798148-108.844454 464.798148-85.216586 464.798148-61.588718 483.711219-42.433172 506.988844-42.433172Z"  horiz-adv-x="1024" />

    
    <glyph glyph-name="more" unicode="&#58935;" d="M147.012 465.109c-44.791 0-81.108-36.304-81.108-81.109 0-44.779 36.316-81.108 81.108-81.108 44.792 0 81.109 36.329 81.109 81.108 0 44.805-36.316 81.109-81.109 81.109zM511.999 465.109c-44.791 0-81.108-36.304-81.108-81.109 0-44.779 36.316-81.108 81.108-81.108 44.792 0 81.109 36.329 81.109 81.108 0 44.805-36.317 81.109-81.109 81.109zM876.987 465.109c-44.791 0-81.108-36.304-81.108-81.109 0-44.779 36.316-81.108 81.108-81.108s81.108 36.329 81.108 81.108c-0.001 44.805-36.317 81.109-81.108 81.109z"  horiz-adv-x="1024" />

    
    <glyph glyph-name="aixin" unicode="&#58885;" d="M512-23.194002l-64.352657 58.361199C219.085764 242.646622 68.191078 379.561921 68.191078 547.099658c0 136.915299 107.180068 244.094344 244.094344 244.094344 77.222779 0 151.3388-35.948747 199.713554-92.53451 48.374754 56.585763 122.490775 92.53451 199.713554 92.53451 136.915299 0 244.094344-107.180068 244.094344-244.094344 0-167.537737-150.894685-304.453037-379.456265-511.933485L512-23.194002z"  horiz-adv-x="1024" />

    
    <glyph glyph-name="wo" unicode="&#58979;" d="M717.664 283.805c-52.734-47.461-121.289-79.102-200.391-79.102s-147.656 31.641-205.664 79.102c-131.836-68.555-221.484-158.203-221.484-321.68l843.75 0c0 163.477-89.648 247.852-216.211 321.68zM512 267.984c131.836 0 237.305 110.742 237.305 242.578s-105.469 242.578-237.305 242.578-237.305-110.742-237.305-242.578c0-137.109 110.742-242.578 237.305-242.578z"  horiz-adv-x="1024" />

    
    <glyph glyph-name="loading" unicode="&#58919;" d="M626.34496 774.1696c0-53.15072-43.07968-96.2304-96.2304-96.2304-53.1456 0-96.2304 43.07968-96.2304 96.2304C433.88928 827.32032 476.96896 870.4 530.11456 870.4c53.1456 0 96.2304-43.0848 96.2304-96.2304zM530.11456 62.0032c-46.50496 0-84.1984-37.69856-84.1984-84.1984s37.69856-84.1984 84.1984-84.1984 84.1984 37.69856 84.1984 84.1984-37.69344 84.1984-84.1984 84.1984z m398.18752 253.83936c-33.21856 0-60.14464 26.92096-60.14464 60.14464 0 33.21856 26.92608 60.14464 60.14464 60.14464 33.22368 0 60.14464-26.92608 60.14464-60.14464-0.00512-33.21856-26.9312-60.14464-60.14464-60.14464zM228.15744 375.9872c0 53.1456-43.07968 96.2304-96.2304 96.2304-53.1456 0-96.2304-43.07968-96.2304-96.2304 0-53.1456 43.07968-96.2304 96.2304-96.2304 53.15072 0 96.2304 43.0848 96.2304 96.2304z m88.448 349.59872c37.5808-37.5808 37.5808-98.5088 0-136.08448-37.5808-37.5808-98.5088-37.5808-136.0896 0s-37.5808 98.5088 0 136.0896 98.5088 37.5808 136.0896-0.00512z m444.03712-580.12672c-28.1856-28.1856-28.1856-73.8816-0.00512-102.0672 28.1856-28.1856 73.8816-28.1856 102.0672 0 28.1856 28.1856 28.1856 73.8816 0 102.0672-28.18048 28.19072-73.87648 28.19072-102.06208 0z m85.05856 478.06464c-18.7904-18.7904-49.25952-18.7904-68.03968 0-18.79552 18.79552-18.79552 49.25952 0 68.0448a48.09728 48.09728 0 0 0 68.03968 0c18.7904-18.7904 18.7904-49.25952 0-68.0448zM316.60544 162.47296c-37.5808 37.5808-98.5088 37.5808-136.0896 0s-37.5808-98.5088 0-136.08448c37.5808-37.5808 98.5088-37.5808 136.08448 0 37.5808 37.57568 37.5808 98.50368 0.00512 136.08448z"  horiz-adv-x="1024" />

    
    <glyph glyph-name="xingxing_selected" unicode="&#58909;" d="M932.5 426.5c16.4 15.9 22.2 39.4 15.1 61.1-7 21.8-25.5 37.3-48.1 40.6l-217.2 31.6c-8.5 1.2-15.8 6.5-19.6 14.2L565.5 770.8C555.4 791.3 534.9 804 512 804s-43.4-12.7-53.5-33.3L361.3 573.9c-3.8-7.6-11.1-13-19.6-14.2l-217.2-31.6c-22.6-3.3-41-18.9-48.1-40.6-7.1-21.7-1.3-45.1 15.1-61.1l157.2-153.3c6.1-5.9 8.9-14.6 7.5-23l-37.1-216.3c-3.9-22.5 5.2-44.9 23.7-58.3 10.5-7.6 22.7-11.5 35-11.5 9.5 0 19 2.3 27.8 6.9l194.3 102.2c7.6 4 16.6 4 24.2 0l194.3-102c20.2-10.7 44.3-9 62.8 4.5 18.5 13.4 27.6 35.8 23.7 58.3l-37.1 216.3c-1.4 8.4 1.4 17 7.5 23l157.2 153.3z m-174.8 57.6c-0.7 0.1-1.3 0.2-1.9 0.3l-1.1 0.1h-0.1l-114 16.6c-10.5 1.5-19.5 8.1-24.2 17.6l-47.7 96.7 0.2 0.1c-2 2.8-3.2 6.2-3.2 9.9 0 9.5 7.7 17.2 17.2 17.2 3.8 0 7.2-1.2 10-3.3l39.6-80.2c2.5-5 5.6-9.5 9.2-13.6 5.9-8.8 15.3-15 25.9-16.8 3.2-1 6.4-1.8 9.8-2.3l87.2-12.7c5.2-2.5 8.8-7.9 8.8-14 0-8.5-7-15.6-15.7-15.6z"  horiz-adv-x="1024" />

    
    <glyph glyph-name="down" unicode="&#58883;" d="M511.87199999999996 219.20000000000005a32 32 0 0 0-23.232000000000006 9.983999999999988l-251.264 265.6a32 32 0 0 0 46.527999999999956 43.96800000000002l228.03200000000024-241.08799999999982 228.22399999999982 241.08800000000016a32.064 32.064 0 0 0 45.248 1.2800000000000367c12.80000000000001-12.159999999999993 13.376000000000012-32.44799999999998 1.2800000000000367-45.248l-251.51999999999998-265.5999999999999a32 32 0 0 0-23.296-9.98400000000002z"  horiz-adv-x="1024" />

    
    <glyph glyph-name="xiajiantou" unicode="&#60269;" d="M573.056 144l308.8 404.608A76.8 76.8 0 0 1 820.736 672H203.232a76.8 76.8 0 0 1-61.056-123.392l308.8-404.608a76.8 76.8 0 0 1 122.08 0z"  horiz-adv-x="1024" />

    
    <glyph glyph-name="geography" unicode="&#58939;" d="M1003.52 534.1866669999999c-27.306667 81.92-75.093333 157.013333-136.533333 218.453333C771.413333 841.386667 648.533333 896 512 896 232.106667 896 0 663.893333 0 384S232.106667-128 512-128 1024 104.10666700000002 1024 384c0 47.786667-6.826667 102.4-20.48 150.186667z m-170.666667-47.786667c-27.306667 40.96-68.266667 47.786667-75.093333 47.786667-13.653333 0-20.48 0-34.133333-13.653334 0 0-13.653333-13.653333-13.653334-6.826666-6.826667 0-20.48 13.653333-34.133333 61.44-6.826667 20.48 0 34.133333 6.826667 47.786666 27.306667 40.96 109.226667 61.44 150.186666 68.266667 47.786667-47.786667 81.92-109.226667 102.4-170.666667-6.826667-109.226667-47.786667-157.013333-75.093333-170.666666-6.826667-6.826667-20.48 0-20.48 0s-6.826667 13.653333 0 27.306666c13.653333 40.96 13.653333 81.92-6.826667 109.226667z m-750.933333-197.973333c27.306667 6.826667 109.226667 40.96 157.013333 109.226666 6.826667 13.653333 13.653333 13.653333 13.653334 13.653334 6.826667 0 34.133333-20.48 40.96-34.133334 6.826667-6.826667 13.653333-13.653333 27.306666-20.48l6.826667-6.826666c20.48-13.653333 68.266667-47.786667 122.88 6.826666 6.826667 0 13.653333-6.826667 20.48-13.653333 27.306667-20.48 68.266667-47.786667 109.226667-27.306667 6.826667 0 13.653333 6.826667 20.48 0 6.826667-6.826667 13.653333-13.653333 13.653333-27.306666 0-6.826667-6.826667-6.826667-13.653333-13.653334-27.306667-13.653333-40.96-13.653333-54.613334-13.653333-6.826667 0-27.306667 0-40.96-13.653333-13.653333-20.48-6.826667-34.133333 6.826667-68.266667l6.826667-13.653333c6.826667-27.306667 6.826667-40.96 0-54.613334-13.653333-13.653333-40.96-27.306667-88.746667-34.133333-34.133333-6.826667-81.92 6.826667-122.88 13.653333-54.613333 13.653333-95.573333 20.48-122.88 0-54.613333 54.613333-88.746667 122.88-102.4 197.973334zM512-59.733333000000016c-102.4 0-197.973333 34.133333-273.066667 95.573333 13.653333 0 34.133333-6.826667 47.786667-6.826667 40.96-13.653333 81.92-20.48 116.053333-20.48h34.133334c47.786667 6.826667 109.226667 27.306667 136.533333 68.266667 20.48 27.306667 20.48 68.266667 0 109.226667v6.826666c13.653333 0 34.133333 6.826667 54.613333 13.653334 34.133333 20.48 47.786667 47.786667 54.613334 75.093333 0 34.133333-13.653333 75.093333-47.786667 88.746667-27.306667 20.48-61.44 27.306667-88.746667 6.826666-6.826667 0-27.306667 13.653333-40.96 20.48-20.48 20.48-68.266667 54.613333-109.226666 6.826667-6.826667-6.826667-13.653333-6.826667-13.653334-6.826667-6.826667 0-13.653333 6.826667-20.48 13.653334h-6.826666c0 6.826667-6.826667 6.826667-13.653334 13.653333-20.48 20.48-54.613333 54.613333-95.573333 54.613333-27.306667 0-47.786667-20.48-68.266667-47.786666-34.133333-47.786667-81.92-68.266667-109.226666-75.093334v27.306667C68.266667 629.76 266.24 827.733333 512 827.733333c95.573333 0 184.32-27.306667 259.413333-81.92-47.786667-13.653333-116.053333-40.96-143.36-88.746666-20.48-27.306667-27.306667-61.44-13.653333-102.4 20.48-68.266667 47.786667-102.4 88.746667-109.226667 27.306667-6.826667 47.786667 6.826667 61.44 13.653333 6.826667 0 13.653333-6.826667 13.653333-13.653333 6.826667-13.653333 0-40.96 0-54.613333-13.653333-40.96-6.826667-75.093333 13.653333-95.573334 13.653333-13.653333 34.133333-20.48 54.613334-20.48 13.653333 0 27.306667 0 34.133333 6.826667 27.306667 13.653333 54.613333 34.133333 68.266667 61.44-13.653333-225.28-204.8-402.773333-436.906667-402.773333z"  horiz-adv-x="1024" />

    
    <glyph glyph-name="social" unicode="&#58948;" d="M448 704h-192c-19.2 0-32-12.8-32-32s12.8-32 32-32h192c19.2 0 32 12.8 32 32S467.2 704 448 704zM448 512h-192c-19.2 0-32-12.8-32-32s12.8-32 32-32h192c19.2 0 32 12.8 32 32S467.2 512 448 512zM448 320h-192c-19.2 0-32-12.8-32-32s12.8-32 32-32h192c19.2 0 32 12.8 32 32S467.2 320 448 320zM832 576H608V800C608 851.2 563.2 896 512 896h-320C140.8 896 96 851.2 96 800v-832c0-51.2 44.8-96 96-96h640c51.2 0 96 44.8 96 96v512c0 51.2-44.8 96-96 96zM160-32v832c0 19.2 12.8 32 32 32h320c19.2 0 32-12.8 32-32V-64H192c-19.2 0-32 12.8-32 32z m704 0c0-19.2-12.8-32-32-32H608V512h224c19.2 0 32-12.8 32-32v-512zM768 384h-64c-19.2 0-32-12.8-32-32s12.8-32 32-32h64c19.2 0 32 12.8 32 32s-12.8 32-32 32zM768 192h-64c-19.2 0-32-12.8-32-32s12.8-32 32-32h64c19.2 0 32 12.8 32 32s-12.8 32-32 32z"  horiz-adv-x="1024" />

    
    <glyph glyph-name="biology" unicode="&#58951;" d="M1003.342268 765.55414l-65.22293 110.878981c-6.522293 13.044586-26.089172 19.566879-45.656051 13.044586-13.044586-6.522293-19.566879-26.089172-13.044586-45.656051l65.22293-110.878981c6.522293-13.044586 19.566879-13.044586 26.089172-13.044586 6.522293 0 13.044586 0 13.044586 6.522293 19.566879 6.522293 26.089172 26.089172 19.566879 39.133758zM77.176662 537.2738850000001c-6.522293 13.044586-26.089172 19.566879-39.133758 13.044586-19.566879-13.044586-26.089172-32.611465-13.044586-45.656051l195.66879-339.159235c6.522293-13.044586 19.566879-13.044586 26.089172-13.044586 6.522293 0 13.044586 0 13.044586 6.522293 19.566879 0 26.089172 19.566879 13.044586 39.133758l-195.66879 339.159235zM905.507873-62.77706999999998h-143.490446c65.22293 52.178344 110.878981 136.968153 110.878981 228.280255 0 117.401274-65.22293 221.757962-169.579618 267.414012 0 6.522293 6.522293 6.522293 6.522293 13.044586 6.522293 13.044586 6.522293 26.089172 0 45.656051l202.191083 117.401274c6.522293 6.522293 13.044586 13.044586 13.044586 19.566879 0 6.522293 0 19.566879-6.522293 26.089172l-130.44586 228.280255c-6.522293 6.522293-13.044586 13.044586-19.566879 13.044586h-26.089172L175.011057 569.88535c-13.044586-19.566879-13.044586-39.133758-6.522293-58.700637l130.44586-228.280254c6.522293-6.522293 13.044586-13.044586 19.566879-13.044586h6.522293c6.522293 0 13.044586 0 13.044586 6.522293L540.259465 393.783439c19.566879-13.044586 39.133758-26.089172 65.22293-26.089171 13.044586 0 26.089172 6.522293 45.656051 13.044586 91.312102-32.611465 150.012739-117.401274 150.012739-215.235669 0-123.923567-104.356688-228.280255-228.280255-228.280255h-195.66879c-19.566879 0-32.611465-13.044586-32.611465-32.611465s13.044586-32.611465 32.611465-32.611465h521.78344c19.566879 0 32.611465 13.044586 32.611465 32.611465s-13.044586 32.611465-26.089172 32.611465zM338.068382 348.127389L240.233987 517.707006l508.738854 293.503185 97.834395-169.579618L670.705325 537.2738850000001c-26.089172 26.089172-71.745223 32.611465-110.878981 13.044586-39.133758-19.566879-52.178344-65.22293-45.656051-104.356688L338.068382 348.127389z m241.324841 104.356687c-6.522293 13.044586 0 32.611465 13.044586 39.133758 6.522293 0 13.044586 6.522293 13.044586 6.522293 13.044586 0 19.566879-6.522293 26.089172-13.044586 6.522293-6.522293 6.522293-13.044586 0-26.089172 6.522293-13.044586 0-19.566879-6.522293-19.566879-13.044586-13.044586-32.611465-6.522293-45.656051 13.044586z"  horiz-adv-x="1024" />

    
    <glyph glyph-name="technology" unicode="&#58956;" d="M991.864268 435.543624C930.011919 531.7583890000001 833.797154 621.1006709999999 710.092456 689.825503L799.434738 841.020134c6.872483 13.744966 6.872483 34.362416-13.744966 48.107383-13.744966 6.872483-34.362416 6.872483-48.107383-13.744967L655.112591 731.060403C380.213262 875.38255 105.313933 882.255034 22.844134 737.932886c-41.234899-75.597315-27.489933-178.684564 48.107383-288.644295 61.852349-89.342282 158.067114-178.684564 274.899329-254.28188l-158.067114-268.026845c-6.872483-6.872483-6.872483-13.744966-6.872484-20.61745 0-20.61745 13.744966-34.362416 34.362416-34.362416h343.624162c20.61745 0 34.362416 13.744966 34.362416 34.362416s-13.744966 34.362416-34.362416 34.362416H277.126013l130.577182 219.919463c123.704698-68.724832 247.409396-109.959732 364.24161-116.832214h34.362416c109.959732 0 192.42953 34.362416 233.66443 103.087248 41.234899 82.469799 27.489933 185.557047-48.107383 288.644295z m-13.744966-247.409396c-27.489933-48.107383-103.087248-75.597315-206.174497-68.724832-109.959732 6.872483-240.536913 48.107383-357.369127 116.832215S187.783732 394.308725 125.931383 490.52349C70.951517 572.993289 57.20655 648.590604 84.696483 703.57047c27.489933 48.107383 89.342282 68.724832 171.812081 68.724832 103.087248 0 233.66443-34.362416 364.24161-103.087248L538.280376 524.885906c-13.744966-20.61745-6.872483-41.234899 13.744966-48.107383 6.872483 0 13.744966-6.872483 13.744967-6.872483 13.744966 0 20.61745 6.872483 27.489933 13.744967l82.469798 144.322147c109.959732-68.724832 199.302013-151.194631 254.281879-233.664429 61.852349-75.597315 75.597315-158.067114 48.107383-206.174497z"  horiz-adv-x="1062" />

    
    <glyph glyph-name="math" unicode="&#58957;" d="M921.6 896h-819.2C47.786667 896 0 848.213333 0 793.6v-819.2c0-54.613333 47.786667-102.4 102.4-102.4h819.2c54.613333 0 102.4 47.786667 102.4 102.4v819.2c0 54.613333-47.786667 102.4-102.4 102.4z m34.133333-921.6c0-20.48-13.653333-34.133333-34.133333-34.133333h-819.2c-20.48 0-34.133333 13.653333-34.133333 34.133333v819.2c0 20.48 13.653333 34.133333 34.133333 34.133333h819.2c20.48 0 34.133333-13.653333 34.133333-34.133333v-819.2zM443.733333 622.933333H341.333333V725.333333c0 20.48-13.653333 34.133333-34.133333 34.133334s-34.133333-13.653333-34.133333-34.133334V622.933333H170.666667c-20.48 0-34.133333-13.653333-34.133334-34.133333s13.653333-34.133333 34.133334-34.133333H273.066667v-102.4c0-20.48 13.653333-34.133333 34.133333-34.133334s34.133333 13.653333 34.133333 34.133334V554.666667h102.4c20.48 0 34.133333 13.653333 34.133334 34.133333S464.213333 622.933333 443.733333 622.933333zM853.333333 622.933333h-273.066666c-20.48 0-34.133333-13.653333-34.133334-34.133333s13.653333-34.133333 34.133334-34.133333h273.066666c20.48 0 34.133333 13.653333 34.133334 34.133333s-13.653333 34.133333-34.133334 34.133333zM853.333333 213.33333300000004h-273.066666c-20.48 0-34.133333-13.653333-34.133334-34.133333s13.653333-34.133333 34.133334-34.133333h273.066666c20.48 0 34.133333 13.653333 34.133334 34.133333s-13.653333 34.133333-34.133334 34.133333zM430.08 302.08000000000004c-13.653333 13.653333-34.133333 13.653333-47.786667 0L307.2 226.986667 232.106667 302.08000000000004c-13.653333 13.653333-34.133333 13.653333-47.786667 0s-13.653333-34.133333 0-47.786667l75.093333-75.093333-75.093333-75.093333c-13.653333-13.653333-13.653333-34.133333 0-47.786667 6.826667-6.826667 13.653333-6.826667 27.306667-6.826667s20.48 0 27.306666 6.826667l75.093334 75.093333 75.093333-75.093333c6.826667-6.826667 13.653333-6.826667 27.306667-6.826667s20.48 0 27.306666 6.826667c13.653333 13.653333 13.653333 34.133333 0 47.786667l-75.093333 75.093333 75.093333 75.093333c0 13.653333 0 34.133333-13.653333 47.786667zM716.8 281.6m-34.133333 0a34.133333 34.133333 0 1 1 68.266666 0 34.133333 34.133333 0 1 1-68.266666 0ZM716.8 76.79999999999995m-34.133333 0a34.133333 34.133333 0 1 1 68.266666 0 34.133333 34.133333 0 1 1-68.266666 0Z"  horiz-adv-x="1024" />

    
    <glyph glyph-name="english" unicode="&#58959;" d="M921.6 896h-819.2C47.786667 896 0 848.213333 0 793.6v-819.2c0-54.613333 47.786667-102.4 102.4-102.4h819.2c54.613333 0 102.4 47.786667 102.4 102.4v819.2c0 54.613333-47.786667 102.4-102.4 102.4z m34.133333-921.6c0-20.48-13.653333-34.133333-34.133333-34.133333h-819.2c-20.48 0-34.133333 13.653333-34.133333 34.133333v819.2c0 20.48 13.653333 34.133333 34.133333 34.133333h819.2c20.48 0 34.133333-13.653333 34.133333-34.133333v-819.2zM443.733333 554.666667c20.48 0 34.133333 13.653333 34.133334 34.133333S464.213333 622.933333 443.733333 622.933333h-204.8c-20.48 0-34.133333-13.653333-34.133333-34.133333v-409.6c0-20.48 13.653333-34.133333 34.133333-34.133333h204.8c20.48 0 34.133333 13.653333 34.133334 34.133333s-13.653333 34.133333-34.133334 34.133333H273.066667V349.866667h170.666666c20.48 0 34.133333 13.653333 34.133334 34.133333S464.213333 418.133333 443.733333 418.133333H273.066667V554.666667h170.666666zM682.666667 418.133333c-75.093333 0-136.533333-61.44-136.533334-136.533333v-102.4c0-20.48 13.653333-34.133333 34.133334-34.133333s34.133333 13.653333 34.133333 34.133333V281.6c0 40.96 27.306667 68.266667 68.266667 68.266667s68.266667-27.306667 68.266666-68.266667v-102.4c0-20.48 13.653333-34.133333 34.133334-34.133333s34.133333 13.653333 34.133333 34.133333V281.6c0 75.093333-61.44 136.533333-136.533333 136.533333z"  horiz-adv-x="1024" />

    
    <glyph glyph-name="edit" unicode="&#58964;" d="M104.688987 182.897925l531.313275 531.388426 212.60046-212.52531-531.388425-531.388426zM1001.458621 768.244333L896.248071 873.454882c-30.060157 30.060157-75.150393 30.060157-105.21055 0L685.826972 768.244333l210.421099-210.421099 105.21055 105.210549c30.060157 30.060157 30.060157 75.150393 0 105.21055zM32.018557 39.28552500000001L1.9584-95.98518100000001c-7.515039-22.545118 7.515039-37.575196 30.060157-30.060157l135.270707 30.060157 90.180471 15.030078-210.421099 210.421099-15.030079-90.180471z"  horiz-adv-x="1025" />

    
    <glyph glyph-name="time" unicode="&#58969;" d="M877.714286 822.857143H768V859.428571c0 21.942857-14.628571 36.571429-36.571429 36.571429S694.857143 881.371429 694.857143 859.428571V822.857143H329.142857V859.428571c0 21.942857-14.628571 36.571429-36.571428 36.571429S256 881.371429 256 859.428571V822.857143H146.285714C87.771429 822.857143 36.571429 771.657143 36.571429 713.142857v-731.428571c0-58.514286 51.2-109.714286 109.714285-109.714286h731.428572c58.514286 0 109.714286 51.2 109.714285 109.714286v731.428571c0 58.514286-51.2 109.714286-109.714285 109.714286zM109.714286 713.142857c0 21.942857 14.628571 36.571429 36.571428 36.571429H256v-36.571429c0-21.942857 14.628571-36.571429 36.571429-36.571428s36.571429 14.628571 36.571428 36.571428V749.714286h365.714286v-36.571429c0-21.942857 14.628571-36.571429 36.571428-36.571428s36.571429 14.628571 36.571429 36.571428V749.714286h109.714286c21.942857 0 36.571429-14.628571 36.571428-36.571429V603.4285709999999H109.714286V713.142857z m804.571428-731.428571c0-21.942857-14.628571-36.571429-36.571428-36.571429h-731.428572c-21.942857 0-36.571429 14.628571-36.571428 36.571429V530.285714h804.571428v-548.571428zM219.428571 310.85714299999995h73.142858c21.942857 0 36.571429 14.628571 36.571428 36.571428S314.514286 384 292.571429 384h-73.142858c-21.942857 0-36.571429-14.628571-36.571428-36.571429s14.628571-36.571429 36.571428-36.571428zM475.428571 310.85714299999995h73.142858c21.942857 0 36.571429 14.628571 36.571428 36.571428S570.514286 384 548.571429 384H475.428571c-21.942857 0-36.571429-14.628571-36.571428-36.571429s14.628571-36.571429 36.571428-36.571428zM731.428571 310.85714299999995h73.142858c21.942857 0 36.571429 14.628571 36.571428 36.571428s-14.628571 36.571429-36.571428 36.571429h-73.142858c-21.942857 0-36.571429-14.628571-36.571428-36.571429s14.628571-36.571429 36.571428-36.571428zM219.428571 91.42857100000003h73.142858c21.942857 0 36.571429 14.628571 36.571428 36.571429s-14.628571 36.571429-36.571428 36.571429h-73.142858c-21.942857 0-36.571429-14.628571-36.571428-36.571429s14.628571-36.571429 36.571428-36.571429zM475.428571 91.42857100000003h73.142858c21.942857 0 36.571429 14.628571 36.571428 36.571429S570.514286 164.57142899999997 548.571429 164.57142899999997H475.428571c-21.942857 0-36.571429-14.628571-36.571428-36.571429s14.628571-36.571429 36.571428-36.571429z"  horiz-adv-x="1024" />

    
    <glyph glyph-name="chinese" unicode="&#58954;" d="M669.34005 385.289673H744.141058c43.848866 0 74.801008 25.793451 74.801007 64.483627V705.128463c0 38.690176-30.952141 64.483627-74.801007 64.483628h-74.801008c-43.848866 0-74.801008-25.793451-74.801007-64.483628v-255.355163c2.579345-38.690176 30.952141-64.483627 74.801007-64.483627z m0 353.370277v-30.952141H744.141058v-255.355164h-74.801008V738.65995zM135.415617 3.5465990000000147h750.589421c59.324937 0 113.491184 46.428212 113.491184 98.015114v696.423174c0 51.586902-54.166247 98.015113-113.491184 98.015113H135.415617C76.09068 896 21.924433 849.571788 21.924433 797.984887v-827.969774c0-51.586902 54.166247-98.015113 113.491184-98.015113h827.969773c23.214106 0 36.110831 12.896725 36.110832 30.952141s-15.476071 30.952141-36.110832 30.952141H135.415617c-23.214106 0-36.110831 12.896725-36.110831 30.952141s15.476071 38.690176 36.110831 38.690176zM927.274559 797.984887V96.40302299999996c0-20.634761-15.476071-30.952141-36.110831-30.952141H290.176322V831.516373h600.987406c18.055416 0 36.110831-12.896725 36.110831-33.531486z m-830.549118 0c0 20.634761 15.476071 30.952141 36.110831 30.952141h77.380353v-763.486146H135.415617c-15.476071 0-23.214106 0-36.110831-5.158691V797.984887h-2.579345z"  horiz-adv-x="1024" />

    
    <glyph glyph-name="physics" unicode="&#58960;" d="M901.12 870.4h-64c-51.2 0-97.28-46.08-97.28-97.28V384c0-122.88-104.96-227.84-227.84-227.84s-227.84 104.96-227.84 227.84V773.12c0 51.2-46.08 97.28-97.28 97.28H122.88C71.68 870.4 25.6 824.3199999999999 25.6 773.12V384c0-266.24 220.16-486.4 486.4-486.4s486.4 220.16 486.4 486.4V773.12c0 51.2-46.08 97.28-97.28 97.28z m-97.28-97.28c0 20.48 12.8 33.28 33.28 33.28h64c20.48 0 33.28-12.8 33.28-33.28v-161.28h-130.56V773.12z m-714.24 0c0 20.48 12.8 33.28 33.28 33.28h64c20.48 0 33.28-12.8 33.28-33.28v-161.28H89.6V773.12zM512-38.39999999999998c-232.96 0-422.4 186.88-422.4 422.4v161.28h130.56V384c0-161.28 130.56-291.84 291.84-291.84S803.84 222.72000000000003 803.84 384v161.28h130.56V384c0-232.96-189.44-422.4-422.4-422.4z"  horiz-adv-x="1024" />

    
    <glyph glyph-name="chemistry" unicode="&#58961;" d="M946.77991 31.843901999999957L679.540886 518.868293V863.531707c0 19.980488-19.980488 32.468293-32.468293 32.468293H379.833569c-19.980488 0-32.468293-12.487805-32.468293-32.468293v-344.663414L77.628691 31.843901999999957c-19.980488-37.463415-19.980488-82.419512-7.492683-109.892682 19.980488-32.468293 59.941463-49.95122 107.395122-49.95122h666.84878c47.453659 0 87.414634 19.980488 107.395122 49.95122 14.985366 27.473171 14.985366 72.429268-4.995122 109.892682zM412.301861 831.063415h199.804879v-332.17561l59.941463-109.892683H344.867715l59.941464 109.892683V831.063415h7.492682z m479.531708-876.643903c-7.492683-12.487805-27.473171-19.980488-47.453659-19.980488H177.53113c-19.980488 0-39.960976 7.492683-47.453659 19.980488-7.492683 12.487805-7.492683 24.97561 0 44.956098l172.331708 319.687805h399.609756l172.331707-319.687805c24.97561-17.482927 24.97561-32.468293 17.482927-44.956098zM412.301861 191.68780500000003c-52.44878 0-99.902439-44.956098-99.902439-94.907317s39.960976-94.907317 99.902439-94.907317 99.902439 44.956098 99.902439 94.907317-47.453659 94.907317-99.902439 94.907317z m0-127.37561c-19.980488 0-32.468293 12.487805-32.468292 32.468293s12.487805 32.468293 32.468292 32.468292 32.468293-12.487805 32.468293-32.468292-19.980488-32.468293-32.468293-32.468293zM572.145764 244.13658499999997c0-27.473171 24.97561-52.44878 52.44878-52.44878 29.970732 0 52.44878 22.478049 52.448781 52.44878 0 27.473171-24.97561 49.95122-52.448781 49.95122s-52.44878-22.478049-52.44878-49.95122z"  horiz-adv-x="1024" />

    
    <glyph glyph-name="history" unicode="&#58974;" d="M689.980952 513.2190479999999c-182.857143 0-329.142857-141.409524-329.142857-319.390477 0-31.695238 7.314286-63.390476 19.504762-95.085714H97.52381c-19.504762 0-31.695238 12.190476-31.695239 31.695238V703.390476c0 19.504762 12.190476 34.133333 31.695239 34.133334h97.523809V674.133333c0-19.504762 12.190476-31.695238 31.695238-31.695238s31.695238 12.190476 31.695238 31.695238V737.52381h197.485715V674.133333c0-19.504762 12.190476-31.695238 31.695238-31.695238s31.695238 12.190476 31.695238 31.695238V737.52381h97.523809c19.504762 0 31.695238-12.190476 31.695238-31.695239v-192.609523h65.828572V703.390476c0 51.2-46.32381 95.085714-97.52381 95.085714h-97.523809V864.304762c0 19.504762-12.190476 31.695238-31.695238 31.695238s-31.695238-12.190476-31.695238-31.695238v-63.390476h-197.485715V864.304762c0 19.504762-12.190476 31.695238-31.695238 31.695238S195.047619 883.809524 195.047619 864.304762v-63.390476H97.52381c-53.638095 0-97.52381-43.885714-97.52381-95.085715v-575.390476c0-51.2 46.32381-95.085714 97.52381-95.085714h309.638095c58.514286-95.085714 163.352381-160.914286 282.819047-160.914286 39.009524 0 78.019048 7.314286 112.152381 19.504762 19.504762 7.314286 26.819048 24.380952 19.504762 39.009524-7.314286 19.504762-26.819048 24.380952-39.009524 19.504762-31.695238-7.314286-58.514286-12.190476-92.647619-12.190476-143.847619 0-263.314286 114.590476-263.314285 256s117.028571 256 263.314285 256S950.857143 332.79999999999995 950.857143 193.828571c0-43.885714-12.190476-90.209524-31.695238-126.780952-7.314286-12.190476-7.314286-31.695238 12.190476-43.885714 12.190476-7.314286 31.695238-7.314286 46.323809 12.190476 26.819048 51.2 46.32381 102.4 46.32381 160.914286-7.314286 175.542857-151.161905 316.952381-334.019048 316.952381zM680.228571 327.92381c-19.504762 0-29.257143-12.190476-29.257142-29.257143V162.133333c0-4.87619 7.314286-4.87619 7.314285-12.190476l60.952381-60.952381c4.87619-4.87619 12.190476-4.87619 24.380953-4.87619s19.504762 0 24.380952 4.87619c12.190476 12.190476 12.190476 29.257143 0 41.447619L711.92381 186.51428599999997v109.714285c0 19.504762-12.190476 31.695238-31.695239 31.695239z"  horiz-adv-x="1026" />

    
    <glyph glyph-name="political" unicode="&#58975;" d="M961.465649 765.720102c-10.422392 5.211196-23.450382 5.211196-28.661578-5.211196-132.885496-109.435115-263.165394-52.111959-401.262086 5.211196C388.234097 823.043257 229.292621 890.788804 72.956743 760.508906l-5.211196-5.211196v-786.890585c0-18.239186 10.422392-28.661578 28.661578-28.661578s23.450382 5.211196 23.450381 23.450382V265.445293c125.068702 96.407125 252.743003 46.900763 390.839695-10.422392 80.773537-33.872774 171.969466-67.745547 257.954198-67.745547 67.745547 0 132.885496 18.239186 200.631044 75.562341 5.211196 0 10.422392 10.422392 10.422392 18.239185V737.058524c0 10.422392-5.211196 23.450382-18.239186 28.661578z m-39.08397-476.824428c-125.068702-96.407125-252.743003-46.900763-390.839694 10.422392-80.773537 39.083969-171.969466 75.562341-257.954199 75.562341-52.111959 0-104.223919-10.422392-153.73028-39.083969v390.839694c125.068702 96.407125 252.743003 46.900763 390.839695-10.422392 125.068702-52.111959 268.37659-114.64631 411.684478-28.661577v-398.656489z"  horiz-adv-x="1042" />

    
    <glyph glyph-name="history-society" unicode="&#58976;" d="M1067.311178 806.283988C804.350453 908.374622 522.827795 902.187311 266.054381 790.81571c-12.374622 37.123867-46.404834 68.060423-86.622357 68.060423-55.685801 0-102.090634-52.592145-102.090634-114.465257V-1.1601210000000037c0-58.779456 46.404834-111.371601 102.090634-111.371601 46.404834 0 86.622356 37.123867 102.090635 80.435045 247.492447 111.371601 516.640483 120.652568 767.226586 21.655589 27.8429-15.468278 61.873112-6.187311 80.435045 6.187312 21.655589 15.468278 34.030211 43.311178 34.030212 74.247734V670.163142c-9.280967 52.592145-49.498489 114.465257-95.903324 136.120846zM179.432024-35.19033200000001c-21.655589 0-34.030211 15.468278-34.030211 37.123867v742.477341c0 21.655589 12.374622 37.123867 34.030211 37.123867s34.030211-21.655589 34.030212-37.123867V-1.1601210000000037c0-21.655589-15.468278-34.030211-34.030212-34.030211z m906.441088 111.371601v-15.468278h-21.655589c-256.773414 105.18429-532.108761 95.903323-785.78852-6.187311V716.567976c244.398792 111.371601 519.734139 117.558912 767.226586 15.468278 21.655589 0 40.217523-37.123867 40.217523-58.779456v-597.075529z"  horiz-adv-x="1237" />

    
    <glyph glyph-name="science" unicode="&#58977;" d="M523.689498 734.684932c-189.369863 0-346.009132-156.639269-346.009133-346.009133 0-130.922374 74.812785-250.155251 189.369863-308.60274v-37.406392c0-88.840183 70.136986-156.639269 156.63927-156.63927s156.639269 70.136986 156.639269 156.63927v37.406392c112.219178 56.109589 189.369863 175.342466 189.369863 308.60274 0 189.369863-156.639269 346.009132-346.009132 346.009133z m95.853881-692.018265c0-51.43379-44.420091-93.515982-93.515982-93.515982s-93.515982 44.420091-93.515981 93.515982V54.356164000000035c30.392694-7.013699 63.123288-11.689498 93.515981-11.689497s63.123288 7.013699 93.515982 11.689497v-11.689497z m-95.853881 63.123287c-156.639269 0-282.885845 126.246575-282.885845 282.885845S367.050228 671.561644 523.689498 671.561644 806.575342 545.315068 806.575342 388.675799s-123.908676-282.885845-282.885844-282.885845z m472.255707 313.278539h-63.123287c-18.703196 0-30.392694-11.689498-30.392694-30.392694s11.689498-30.392694 30.392694-30.392694h63.123287c18.703196 0 30.392694 11.689498 30.392695 30.392694s-11.689498 30.392694-30.392695 30.392694z m-156.639269 327.305936L794.885845 701.954338c-11.689498-11.689498-11.689498-30.392694 0-44.420091 7.013699-7.013699 11.689498-7.013699 25.716895-7.013699 11.689498 0 18.703196 0 25.716895 7.013699L888.401826 701.954338c11.689498 11.689498 11.689498 30.392694 0 44.420091s-44.420091 11.689498-49.09589 0z m-315.616438 18.703197c18.703196 0 30.392694 11.689498 30.392694 30.392694V858.593607c0 18.703196-11.689498 30.392694-30.392694 30.392694s-30.392694-11.689498-30.392694-30.392694v-63.123287c0-16.365297 11.689498-30.392694 30.392694-30.392694zM236.127854 645.844749c7.013699 0 18.703196 0 25.716895 7.013698 11.689498 11.689498 11.689498 37.406393 0 44.420092L210.410959 746.374429c-11.689498 11.689498-30.392694 11.689498-44.420091 0s-11.689498-30.392694 0-44.420091L210.410959 652.8584470000001c7.013699-7.013699 18.703196-7.013699 25.716895-7.013698zM116.894977 419.068493H53.771689c-18.703196 0-30.392694-11.689498-30.392694-30.392694S35.068493 358.283105 53.771689 358.283105H116.894977c18.703196 0 30.392694 11.689498 30.392694 30.392694s-11.689498 30.392694-30.392694 30.392694z"  horiz-adv-x="1056" />

    
    <glyph glyph-name="xiangji" unicode="&#59301;" d="M805.3 624c29.4 0 54.6-10.4 75.4-31.3 20.9-20.9 31.3-45.9 31.3-75.4V144c0-29.4-10.4-54.6-31.3-75.4-20.9-20.9-45.9-31.3-75.4-31.3H218.7c-29.4 0-54.6 10.4-75.4 31.3S112 114.5 112 144V517.4c0 29.4 10.4 54.6 31.3 75.4s45.9 31.3 75.4 31.3h93.4l21.2 56.6c5.2 13.6 15 25.4 29 35.2 14 9.8 28.4 14.8 43.1 14.8h213.3c14.8 0 29.1-4.9 43.1-14.8 14-9.8 23.7-21.6 29-35.2l21.2-56.6h93.5v-0.1zM380.2 198.9c36.5-36.5 80.5-54.8 131.8-54.8 51.4 0 95.3 18.3 131.8 54.8 36.5 36.5 54.8 80.5 54.8 131.8 0 51.4-18.3 95.3-54.8 131.8-36.5 36.5-80.5 54.8-131.8 54.8s-95.3-18.3-131.8-54.8-54.8-80.5-54.8-131.8c0-51.3 18.2-95.3 54.8-131.8z m47.1 216.6c23.5 23.5 51.7 35.2 84.7 35.2s61.3-11.7 84.7-35.2c23.5-23.5 35.2-51.7 35.2-84.7s-11.7-61.3-35.2-84.7c-23.5-23.5-51.7-35.2-84.7-35.2s-61.3 11.7-84.7 35.2c-23.5 23.5-35.2 51.7-35.2 84.7s11.7 61.2 35.2 84.7z"  horiz-adv-x="1024" />

    
    <glyph glyph-name="sousuo" unicode="&#58913;" d="M512 88.064a287.232 287.232 0 1 0 202.752 490.496A287.232 287.232 0 0 0 512 88.064z m0 512a226.048 226.048 0 1 1 159.744-66.304A224.512 224.512 0 0 1 512 601.344zM804.864 51.2a30.72 30.72 0 0 0-21.76 8.96l-104.192 104.192a30.72 30.72 0 1 0 43.52 43.52l104.192-104.192a30.72 30.72 0 0 0-21.76-51.2z"  horiz-adv-x="1024" />

    
    <glyph glyph-name="guanli" unicode="&#58920;" d="M227.5 422.2c-27.2 0-49.2-22-49.2-49.3 0-27.2 22-49.2 49.2-49.2 27.2 0 49.2 22 49.2 49.2 0 27.2-22.1 49.3-49.2 49.3zM227.5 205.60000000000002c-27.2 0-49.2-22-49.2-49.2 0-27.2 22-49.3 49.2-49.3 27.2 0 49.2 22 49.2 49.3 0 27.1-22.1 49.2-49.2 49.2zM227.5 638.8c-27.2 0-49.2-22-49.2-49.2 0-27.2 22-49.2 49.2-49.2 27.2 0 49.2 22 49.2 49.2 0 27.1-22.1 49.2-49.2 49.2zM828.1 619.1H375.2c-10.9 0-19.7-8.8-19.7-19.7v-19.7c0-10.9 8.8-19.7 19.7-19.7h452.9c10.9 0 19.7 8.8 19.7 19.7v19.7c0 10.9-8.8 19.7-19.7 19.7zM828.1 185.89999999999998H375.2c-10.9 0-19.7-8.8-19.7-19.7v-19.7c0-10.9 8.8-19.7 19.7-19.7h452.9c10.9 0 19.7 8.8 19.7 19.7v19.7c0 10.8-8.8 19.7-19.7 19.7zM828.1 402.4H375.2c-10.9 0-19.7-8.8-19.7-19.7V363c0-10.8 8.8-19.7 19.7-19.7h452.9c10.9 0 19.7 8.8 19.7 19.7v19.7c0 10.9-8.8 19.7-19.7 19.7z"  horiz-adv-x="1024" />

    
    <glyph glyph-name="write-delete" unicode="&#58884;" d="M977.454545 698.181818H733.090909V826.181818c0 32.581818-25.6 58.181818-58.181818 58.181818H349.090909c-32.581818 0-58.181818-25.6-58.181818-58.181818v-130.327273H46.545455c-18.618182 0-34.909091-16.290909-34.909091-34.90909s16.290909-34.909091 34.909091-34.909091h104.727272V-34.90909099999999c0-44.218182 37.236364-81.454545 81.454546-81.454545h558.545454c44.218182 0 81.454545 37.236364 81.454546 81.454545V628.363636H977.454545c18.618182 0 34.909091 16.290909 34.909091 34.909091s-16.290909 34.909091-34.909091 34.909091z m-616.727272 116.363637h302.545454v-118.69091h-302.545454V814.545455z m442.181818-849.454546c0-6.981818-4.654545-11.636364-11.636364-11.636364H232.727273c-6.981818 0-11.636364 4.654545-11.636364 11.636364V628.363636h581.818182V-34.90909099999999zM418.909091 512c-18.618182 0-34.909091-16.290909-34.909091-34.909091v-372.363636c0-18.618182 16.290909-34.909091 34.909091-34.909091s34.909091 16.290909 34.909091 34.909091V477.090909c0 18.618182-16.290909 34.909091-34.909091 34.909091zM605.090909 512c-18.618182 0-34.909091-16.290909-34.909091-34.909091v-372.363636c0-18.618182 16.290909-34.909091 34.909091-34.909091s34.909091 16.290909 34.909091 34.909091V477.090909c0 18.618182-16.290909 34.909091-34.909091 34.909091z"  horiz-adv-x="1024" />

    
    <glyph glyph-name="ziyuanku-qitakemu" unicode="&#58911;" d="M372.363636 404.945455H204.8c-109.381818 0-200.145455 90.763636-200.145455 200.145454v4.654546C4.654545 765.672727 130.327273 891.345455 286.254545 891.345455h4.654546c109.381818 0 200.145455-90.763636 200.145454-200.145455V523.636364c0-65.163636-53.527273-118.690909-118.690909-118.690909zM286.254545 821.527273c-118.690909 0-214.109091-95.418182-214.10909-214.109091v-4.654546c0-72.145455 58.181818-130.327273 130.327272-130.327272H372.363636c25.6 0 48.872727 20.945455 48.872728 48.872727V691.2c0 72.145455-58.181818 130.327273-130.327273 130.327273h-4.654546zM819.2 404.945455H651.636364c-65.163636 0-116.363636 53.527273-116.363637 116.363636V691.2C535.272727 800.581818 626.036364 891.345455 735.418182 891.345455h2.327273c155.927273 0 281.6-125.672727 281.6-281.6v-4.654546c0-109.381818-90.763636-200.145455-200.145455-200.145454zM733.090909 821.527273c-72.145455 0-130.327273-58.181818-130.327273-130.327273V523.636364c0-25.6 20.945455-48.872727 48.872728-48.872728h169.890909c72.145455 0 130.327273 58.181818 130.327272 130.327273v4.654546c0 118.690909-95.418182 214.109091-214.10909 214.10909h-4.654546zM737.745455-123.34545500000002h-2.327273c-109.381818 0-200.145455 90.763636-200.145455 200.145455V244.36363600000004c0 65.163636 53.527273 116.363636 116.363637 116.363637h169.890909c109.381818 0 200.145455-90.763636 200.145454-200.145455v-2.327273c-2.327273-153.6-128-281.6-283.927272-281.6zM651.636364 293.236364c-25.6 0-48.872727-20.945455-48.872728-48.872728v-169.890909c0-72.145455 58.181818-130.327273 130.327273-130.327272h2.327273c118.690909 0 214.109091 95.418182 214.109091 214.10909v2.327273c0 72.145455-58.181818 130.327273-130.327273 130.327273H651.636364zM290.909091-123.34545500000002h-4.654546C130.327273-123.34545500000002 4.654545 2.327272999999991 4.654545 158.254545v2.327273c0 109.381818 90.763636 200.145455 200.145455 200.145455H372.363636c65.163636 0 116.363636-53.527273 116.363637-116.363637v-169.890909c2.327273-107.054545-88.436364-197.818182-197.818182-197.818182zM204.8 293.236364c-72.145455 0-130.327273-58.181818-130.327273-130.327273v-2.327273c0-118.690909 95.418182-214.109091 214.109091-214.109091h4.654546c72.145455 0 130.327273 58.181818 130.327272 130.327273V244.36363600000004c0 25.6-20.945455 48.872727-48.872727 48.872728H204.8z"  horiz-adv-x="1024" />

    
    <glyph glyph-name="drop-down1" unicode="&#58882;" d="M517.910645 315.682159l237.730734 328.846777H280.17991z"  horiz-adv-x="1024" />

    
    <glyph glyph-name="houtui" unicode="&#58907;" d="M722.6 726.9L368.6 384l354-342.9c12.4-13.1 12.4-34.3 0-47.3-12.4-13.1-32.4-13.1-44.8 0L301.2 358.6c-6.6 7-9.4 16.2-9 25.4-0.4 9.1 2.4 18.4 9 25.3l376.7 364.8c12.4 13.1 32.4 13.1 44.8 0 12.2-13 12.2-34.2-0.1-47.2z"  horiz-adv-x="1024" />

    
    <glyph glyph-name="cuo" unicode="&#58918;" d="M556.992 383.008l266.016 264Q832 656 832 669.024t-8.992 23.008q-6.016 6.016-14.496 8.512t-16.512 0-15.008-8.512L512 428.032l-263.008 264q-8.992 8.992-22.496 8.992t-23.008-8.992-9.504-22.496T204 647.04l263.008-264-264.992-264Q192 110.048 192 96.544t9.504-22.496T224 65.056t23.008 8.992l264.992 264L776.992 71.04q10.016-8.992 23.008-8.992 3.008 0 6.016 0.512t6.016 1.504 5.504 3.008 5.504 4q8.992 10.016 8.992 23.008t-8.992 23.008z"  horiz-adv-x="1024" />

    
    <glyph glyph-name="jiahao" unicode="&#58910;" d="M821 332.8H566.2v-254.9c0-28.1-22.8-51-51-51-28.1 0-51 22.8-51 51V332.8H209.4c-28.1 0-51 22.8-51 51 0 28.1 22.8 51 51 51h254.8V689.6c0 28.1 22.8 51 51 51s51-22.8 51-51v-254.9H821c28.2 0 51-22.8 51-51 0-28.1-22.8-50.9-51-50.9z"  horiz-adv-x="1024" />

    
    <glyph glyph-name="zhengqueshuaishezhi" unicode="&#58915;" d="M37.236364 349.090909h649.309091c13.963636-53.527273 65.163636-93.090909 121.018181-93.090909 58.181818 0 107.054545 37.236364 121.018182 93.090909h60.509091c20.945455 0 34.909091 13.963636 34.909091 34.909091-2.327273 20.945455-20.945455 34.909091-34.909091 34.909091h-60.509091c-13.963636 53.527273-65.163636 93.090909-121.018182 93.090909-58.181818 0-107.054545-37.236364-121.018181-93.090909H37.236364c-20.945455 0-34.909091-13.963636-34.909091-34.909091s13.963636-34.909091 34.909091-34.909091zM747.054545 384c0 30.254545 27.927273 58.181818 58.181819 58.181818s58.181818-27.927273 58.181818-58.181818c-2.327273-27.927273-25.6-58.181818-58.181818-58.181818-30.254545 0-58.181818 27.927273-58.181819 58.181818zM37.236364 686.545455h107.054545c13.963636-53.527273 65.163636-93.090909 121.018182-93.09091 58.181818 0 107.054545 37.236364 121.018182 93.09091h602.763636c20.945455 0 34.909091 13.963636 34.909091 34.90909S1010.036364 756.363636 989.090909 756.363636H379.345455c-13.963636 53.527273-65.163636 93.090909-121.018182 93.090909C200.145455 849.454545 151.272727 812.218182 139.636364 756.363636H37.236364C16.290909 756.363636 2.327273 742.4 2.327273 721.454545 2.327273 707.490909 16.290909 686.545455 37.236364 686.545455z m167.563636 37.236363C204.8 756.363636 230.4 779.636364 262.981818 779.636364c30.254545 0 58.181818-27.927273 58.181818-58.181819S293.236364 663.272727 262.981818 663.272727C232.727273 665.6 204.8 691.2 204.8 723.781818zM986.763636 81.454545H563.2c-13.963636 53.527273-65.163636 93.090909-121.018182 93.09091-58.181818 0-107.054545-37.236364-121.018182-93.09091H37.236364c-20.945455 0-34.909091-13.963636-34.909091-34.90909S16.290909 11.636364 37.236364 11.636364h286.254545c13.963636-53.527273 65.163636-93.090909 121.018182-93.090909 58.181818 0 107.054545 37.236364 121.018182 93.090909h421.236363c20.945455 0 34.909091 13.963636 34.909091 34.909091 0 13.963636-20.945455 34.909091-34.909091 34.90909z m-484.072727-34.90909c-2.327273-27.927273-25.6-58.181818-58.181818-58.181819-30.254545 0-58.181818 27.927273-58.181818 58.181819s27.927273 58.181818 58.181818 58.181818c30.254545-2.327273 58.181818-30.254545 58.181818-58.181818z"  horiz-adv-x="1024" />

    
    <glyph glyph-name="shaixuan" unicode="&#58916;" d="M896 795.927273c6.981818 9.309091 6.981818 20.945455 2.327273 32.581818-4.654545 9.309091-16.290909 16.290909-27.927273 16.290909h-837.818182c-11.636364 0-23.272727-6.981818-27.927273-16.290909-4.654545-11.636364-4.654545-23.272727 4.654546-32.581818L304.872727 430.545455v-360.727273c0-11.636364 6.981818-23.272727 18.618182-27.927273l256-116.363636c4.654545-2.327273 9.309091-2.327273 11.636364-2.327273 4.654545 0 11.636364 2.327273 16.290909 4.654545 9.309091 4.654545 13.963636 16.290909 13.963636 25.6V432.872727L896 795.927273z m-83.781818-11.636364l-232.727273-311.854545h-228.072727L97.745455 784.290909h714.472727zM563.2 0l-195.490909 88.436364V411.927273h195.490909v-411.927273zM702.836364 311.854545c0-16.290909 13.963636-30.254545 30.254545-30.254545h256c16.290909 0 30.254545 13.963636 30.254546 30.254545s-13.963636 30.254545-30.254546 30.254546h-256c-16.290909 0-30.254545-13.963636-30.254545-30.254546zM989.090909 179.2h-256c-16.290909 0-30.254545-13.963636-30.254545-30.254545s13.963636-30.254545 30.254545-30.254546h256c16.290909 0 30.254545 13.963636 30.254546 30.254546s-13.963636 30.254545-30.254546 30.254545zM989.090909 16.290909h-256c-16.290909 0-30.254545-13.963636-30.254545-30.254545s13.963636-30.254545 30.254545-30.254546h256c16.290909 0 30.254545 13.963636 30.254546 30.254546s-13.963636 30.254545-30.254546 30.254545z"  horiz-adv-x="1024" />

    
    <glyph glyph-name="laiyuan" unicode="&#58917;" d="M765.672727 763.345455c-69.818182 0-128-55.854545-128-125.672728 0-69.818182 55.854545-128 128-128 69.818182 0 125.672727 55.854545 125.672728 128 2.327273 69.818182-55.854545 125.672727-125.672728 125.672728z m0-188.509091c-34.909091 0-62.836364 27.927273-62.836363 62.836363 0 34.909091 27.927273 62.836364 62.836363 62.836364 34.909091 0 62.836364-27.927273 62.836364-62.836364 0-34.909091-27.927273-62.836364-62.836364-62.836363z m253.672728-95.418182V814.545455c0 41.890909-34.909091 76.8-76.8 76.8H600.436364c-20.945455 0-53.527273 0-74.472728-20.945455L23.272727 367.709091c-11.636364-11.636364-18.618182-27.927273-18.618182-44.218182s6.981818-32.581818 18.618182-44.218182L407.272727-104.727273c11.636364-11.636364 27.927273-18.618182 44.218182-18.618182s32.581818 6.981818 44.218182 18.618182l500.363636 500.363637c23.272727 23.272727 23.272727 53.527273 23.272728 83.781818zM954.181818 442.181818L451.490909-60.509091 67.490909 323.490909 567.854545 823.854545c4.654545 2.327273 23.272727 2.327273 30.254546 2.327273h342.109091c6.981818 0 13.963636-6.981818 13.963636-13.963636V477.090909c2.327273-11.636364 2.327273-30.254545 0-34.909091z m0 0"  horiz-adv-x="1024" />

    


  </font>
</defs>
</svg>
